<svg width="50" height="52" viewBox="0 0 50 52" fill="none" xmlns="http://www.w3.org/2000/svg">
<path d="M18.7168 50.6283C5.49429 47.5732 -2.4561 32.8813 0.684707 20.0107C3.9104 6.79229 16.8263 -1.7334 30.0774 0.298801C30.9311 0.424897 31.7585 0.508054 32.4746 0.896127C34.4213 1.82935 35.497 4.06648 34.9971 6.26611C34.4444 8.37986 32.6254 9.79302 30.5635 9.93597C30.0414 9.96097 29.6758 9.94901 29.1876 9.83488C18.9484 7.84506 8.93171 13.7026 6.60581 23.2338C4.00828 33.8781 12.0954 43.9321 22.3762 45.6007C30.4613 46.903 38.9979 43.7881 43.96 36.8957C50.3548 28.0585 48.5311 16.0495 40.1324 9.0848L40.1757 9.05816C49.9557 17.0077 52.1127 30.8229 44.7601 41.0172C39.3927 48.5134 30.3453 52.0605 21.4873 51.0555C20.5468 50.9827 19.6233 50.8403 18.7168 50.6283Z" fill="#FF7700"/>
</svg>
