<svg width="31" height="30" viewBox="0 0 31 30" fill="none" xmlns="http://www.w3.org/2000/svg">
<path fill-rule="evenodd" clip-rule="evenodd" d="M15.4555 29.9739C17.3199 29.8565 18.3819 27.7106 17.3199 26.2461C16.3326 24.8847 15.8548 23.9494 16.654 22.5849C17.1372 21.7599 18.4358 21.6914 20.0726 21.6051C22.9465 21.4535 26.863 21.2469 29.2388 16.7935C32.506 10.6686 24.8441 -1.11334 14.1238 0.0848884C6.5993 0.92596 0.340472 5.74317 0.00754246 15.0627C-0.267125 22.7846 6.99875 30.5065 15.4555 29.9739ZM8.59688 12.2662C8.59688 13.8103 7.34481 15.0621 5.80026 15.0621C4.25572 15.0621 3.00365 13.8103 3.00365 12.2662C3.00365 10.7221 4.25572 9.47033 5.80026 9.47033C7.34481 9.47033 8.59688 10.7221 8.59688 12.2662ZM10.994 8.40525C12.5385 8.40525 13.7906 7.15345 13.7906 5.60939C13.7906 4.06532 12.5385 2.81353 10.994 2.81353C9.44943 2.81353 8.19736 4.06532 8.19736 5.60939C8.19736 7.15345 9.44943 8.40525 10.994 8.40525ZM22.1804 5.87566C22.1804 7.41973 20.9284 8.67152 19.3838 8.67152C17.8393 8.67152 16.5872 7.41973 16.5872 5.87566C16.5872 4.33159 17.8393 3.0798 19.3838 3.0798C20.9284 3.0798 22.1804 4.33159 22.1804 5.87566ZM24.4443 15.0621C25.9889 15.0621 27.241 13.8103 27.241 12.2662C27.241 10.7221 25.9889 9.47033 24.4443 9.47033C22.8998 9.47033 21.6477 10.7221 21.6477 12.2662C21.6477 13.8103 22.8998 15.0621 24.4443 15.0621Z" fill="#FF7700"/>
</svg>
